<svg id="Layer_1" data-name="Layer 1" xmlns="http://www.w3.org/2000/svg" viewBox="0 0 430.96 295.02"><defs><style>.cls-1{fill:#fb503b;}</style></defs><title>laravel_logo</title><path class="cls-1" d="M556.82,344.23c-2.85-3.21-42.3-52.59-49.25-61s-10.34-6.86-14.62-6.24-54.2,9-60,10-9.45,3.3-5.88,8.29c3.17,4.44,36,51,43.21,61.21L339.83,387.75,236.07,214.29c-4.13-6.12-5-8.26-14.39-7.84s-81.39,6.41-86.52,6.84-10.76,2.71-5.63,14.82,86.89,188.29,89.17,193.42,8.2,13.44,22.08,10.11c14.21-3.42,63.5-16.28,90.43-23.33,14.23,25.77,43.25,78,48.62,85.54,7.17,10,12.1,8.35,23.1,5,8.59-2.6,134.4-47.85,140.07-50.18s9.17-4,5.33-9.67c-2.82-4.17-36-48.63-53.39-71.89,11.91-3.17,54.24-14.44,58.76-15.66C559,350,559.67,347.44,556.82,344.23ZM319.65,392.72c-1.56.33-74.63,17.82-78.53,18.71s-3.9.45-4.34-.89S149.9,231,148.69,228.75s-1.14-4,0-4,69-6.07,71.41-6.19,2.15.38,3,1.9c0,0,95.73,165.24,97.4,168.13S321.21,392.38,319.65,392.72Zm206,38.62c1.17,1.83,2.33,3-1.33,4.33s-123.67,41.83-126,42.83-4.17,1.33-7.17-3-42-71.9-42-71.9l127.21-33.1c3.17-1,4.17-1.67,6.17,1.5S524.5,429.5,525.67,431.33ZM533.82,341c-2.85.62-49.56,12.21-49.56,12.21l-38.2-52.41c-1.07-1.52-2-3,.71-3.39s46.08-8.2,48-8.65,3.66-1,6.06,2.32,35.44,45.1,36.69,46.71S536.67,340.39,533.82,341Z" transform="translate(-127.51 -206.4)"/></svg>