<svg xmlns="http://www.w3.org/2000/svg" viewBox="0 0 204.3 177.71"><defs><style>.cls-1{fill:#4d4d4d;}.cls-2{fill:#333;}.cls-3{fill:#f5ce85;}.cls-4{fill:#967a44;}.cls-5{fill:#f55247;}</style></defs><title>toaster_logo</title><g id="Layer_1" data-name="Layer 1"><path class="cls-1" d="M788,840.68H701.68a5.55,5.55,0,0,1-6-5.83q0-8.36,0-16.72c0-16.31-.24-32.62.08-48.92.28-14,6.85-24.72,18.79-32A36.36,36.36,0,0,1,733.93,732q54.19,0,108.38,0a38.08,38.08,0,0,1,36.46,26.59,37.34,37.34,0,0,1,1.77,11.5q0,32.41,0,64.83a5.48,5.48,0,0,1-5.86,5.81Z" transform="translate(-691.2 -667.99)"/><path class="cls-2" d="M702,845.52c-.88-.13-1.73-.2-2.54-.4a10.7,10.7,0,0,1-8.24-10.73q0-15.2,0-30.4c0-10.67,0-21.34,0-32a47.77,47.77,0,0,1,1.8-14.07,42.65,42.65,0,0,1,12.75-20,41.93,41.93,0,0,1,17-9.23c.59-.16.74-.43.74-1q0-14.8,0-29.59a1.4,1.4,0,0,0-.56-1.19,12.87,12.87,0,0,1-4.67-8.36A13.44,13.44,0,0,1,729,673.22c4.51-.91,9-1.9,13.56-2.64,4.32-.71,8.68-1.19,13-1.69a135.49,135.49,0,0,1,17.17-.88c4,0,8,.17,11.94.56a51.45,51.45,0,0,0,8.36-.16c2.68-.17,5.37-.31,8.06-.35,3.11,0,6.23-.08,9.34.07,3.8.19,7.59.52,11.38.89a203.69,203.69,0,0,1,25.64,4.32A13.58,13.58,0,0,1,853,697a1.28,1.28,0,0,0-.51,1.08q0,14.86,0,29.73c0,.54.14.78.68.93A42.41,42.41,0,0,1,876,744.05a41.88,41.88,0,0,1,8.21,18.76,11.5,11.5,0,0,1,.23,1.46c0,.49.24.58.67.58q3.63,0,7.26,0a3.24,3.24,0,0,1,2.31.73,2.45,2.45,0,0,1,.7,2.64,2.22,2.22,0,0,1-2.07,1.74c-1.72.1-3.44.1-5.17.13-1.07,0-2.14,0-3.29,0v1q0,31.61,0,63.23a10.41,10.41,0,0,1-6.28,10.11,28.32,28.32,0,0,1-4.5,1.27m-21.4-.2H723.43M788,840.11h85.76a5.42,5.42,0,0,0,5.8-5.75q0-32.08,0-64.16a37,37,0,0,0-1.75-11.38,37.69,37.69,0,0,0-36.09-26.32q-53.64,0-107.28,0a36,36,0,0,0-19.16,5.18c-11.81,7.24-18.32,17.84-18.6,31.71-.32,16.14-.08,32.28-.08,48.42q0,8.27,0,16.55a5.5,5.5,0,0,0,5.93,5.77Zm27-113v-1q0-15.17,0-30.33a1.53,1.53,0,0,1,.73-1.5,15,15,0,0,0,1.61-1.22,8.05,8.05,0,0,0,2.85-8.44,7.77,7.77,0,0,0-6.33-6.22,189.35,189.35,0,0,0-26.47-4.32q-6.62-.55-13.27-.78a116.27,116.27,0,0,0-14.91.51c-3.5.33-7,.66-10.48,1.13-6.27.85-12.48,2.07-18.67,3.43a8.41,8.41,0,0,0-5.45,12.58,12.3,12.3,0,0,0,3.58,3.4,1.39,1.39,0,0,1,.64,1.28q0,15.47,0,30.94v.82c9.63-.49,19.18-.19,28.72-.24s19.15,0,28.72,0Zm32.29.26v-.88q0-15.5,0-31a1.19,1.19,0,0,1,.56-1.12c.57-.39,1.12-.82,1.66-1.26a8.06,8.06,0,0,0,3-8.51,7.84,7.84,0,0,0-6.44-6.26,210.65,210.65,0,0,0-26.93-4.4c-.56-.05-1.12-.08-1.68-.12a2.52,2.52,0,0,0,.79.54,13.48,13.48,0,0,1,7.25,14.45,13.32,13.32,0,0,1-4.71,8.21,1.42,1.42,0,0,0-.44,1c0,9.48,0,19,0,28.45,0,.52.14.69.68.69C829.68,727.22,838.43,726.88,847.27,727.39Z" transform="translate(-691.2 -667.99)"/><path class="cls-3" d="M815,727.13H786.23c-9.57,0-19.15,0-28.72,0s-19.09-.25-28.72.24v-.82q0-15.47,0-30.94a1.39,1.39,0,0,0-.64-1.28,12.3,12.3,0,0,1-3.58-3.4A8.41,8.41,0,0,1,730,678.35c6.19-1.36,12.4-2.58,18.67-3.43,3.48-.47,7-.8,10.48-1.13a116.27,116.27,0,0,1,14.91-.51q6.64.23,13.27.78a189.35,189.35,0,0,1,26.47,4.32,7.77,7.77,0,0,1,6.33,6.22,8.05,8.05,0,0,1-2.85,8.44,15,15,0,0,1-1.61,1.22,1.53,1.53,0,0,0-.73,1.5q0,15.17,0,30.33Zm-43.07-27a5.32,5.32,0,0,0,0-10.65,5.21,5.21,0,0,0-5.3,5.36A5.27,5.27,0,0,0,771.92,700.15Zm-18.86-5.28a2.64,2.64,0,1,0,2.64,2.68A2.7,2.7,0,0,0,753.05,694.87Zm40.31,18.79a2.64,2.64,0,1,0-2.68,2.64A2.7,2.7,0,0,0,793.36,713.66Z" transform="translate(-691.2 -667.99)"/><path class="cls-3" d="M847.27,727.39c-8.84-.51-17.59-.17-26.32-.25-.54,0-.68-.18-.68-.69,0-9.48,0-19,0-28.45a1.42,1.42,0,0,1,.44-1,13.32,13.32,0,0,0,4.71-8.21,13.48,13.48,0,0,0-7.25-14.45,2.52,2.52,0,0,1-.79-.54c.56,0,1.12.07,1.68.12a210.65,210.65,0,0,1,26.93,4.4,7.84,7.84,0,0,1,6.44,6.26,8.06,8.06,0,0,1-3,8.51c-.54.44-1.09.87-1.66,1.26a1.19,1.19,0,0,0-.56,1.12q0,15.5,0,31Zm-10.86-24.51a2.64,2.64,0,1,0-2.6,2.65A2.7,2.7,0,0,0,836.41,702.88Z" transform="translate(-691.2 -667.99)"/><path class="cls-4" d="M771.92,700.15a5.27,5.27,0,0,1-5.33-5.29,5.21,5.21,0,0,1,5.3-5.36,5.32,5.32,0,0,1,0,10.65Z" transform="translate(-691.2 -667.99)"/><path class="cls-4" d="M753.05,694.87a2.64,2.64,0,1,1-2.64,2.61A2.7,2.7,0,0,1,753.05,694.87Z" transform="translate(-691.2 -667.99)"/><path class="cls-4" d="M793.36,713.66a2.64,2.64,0,1,1-2.6-2.65A2.7,2.7,0,0,1,793.36,713.66Z" transform="translate(-691.2 -667.99)"/><path class="cls-4" d="M836.41,702.88a2.64,2.64,0,1,1-2.62-2.63A2.7,2.7,0,0,1,836.41,702.88Z" transform="translate(-691.2 -667.99)"/><path class="cls-5" d="M831.82,784.38c-.58-.65-8.63-10.73-10-12.44s-2.11-1.4-3-1.27-11.05,1.84-12.24,2-1.93.67-1.2,1.69,7.34,10.39,8.81,12.48l-26.61,6.37L766.4,757.88c-.84-1.25-1-1.69-2.93-1.6s-16.6,1.31-17.65,1.39-2.19.55-1.15,3,17.72,38.41,18.19,39.45a3.57,3.57,0,0,0,4.5,2.06c2.9-.7,13-3.32,18.45-4.76,2.9,5.26,8.82,15.92,9.92,17.45,1.46,2,2.47,1.7,4.71,1,1.75-.53,27.41-9.76,28.57-10.24s1.87-.82,1.09-2c-.57-.85-7.34-9.92-10.89-14.66l12-3.2C832.26,785.56,832.41,785,831.82,784.38Zm-48.38,9.89-16,3.82c-.8.18-.8.09-.89-.18s-17.72-36.63-18-37.08-.23-.81,0-.81,14.08-1.24,14.57-1.26.44.08.62.39l19.87,34.3C784,794,783.76,794.21,783.45,794.27Zm42,7.88c.24.37.48.61-.27.88s-25.23,8.53-25.7,8.74-.85.27-1.46-.61-8.58-14.67-8.58-14.67l25.95-6.75c.65-.2.85-.34,1.26.31S825.23,801.78,825.47,802.15Zm1.66-18.42c-.58.13-10.11,2.49-10.11,2.49l-7.79-10.69c-.22-.31-.4-.62.15-.69s9.4-1.67,9.8-1.76.75-.2,1.24.47,7.23,9.2,7.48,9.53S827.72,783.6,827.13,783.73Z" transform="translate(-691.2 -667.99)"/></g></svg>